<svg id="SvgjsSvg1018" width="5000px" height="1619.4254024493569px" xmlns="http://www.w3.org/2000/svg" version="1.1" xmlns:xlink="http://www.w3.org/1999/xlink" xmlns:svgjs="http://svgjs.com/svgjs" viewBox="0 0 202.859375 65.703125"><defs id="SvgjsDefs1019"></defs><g id="SvgjsG1021" transform="rotate(0 37 31.3515625)"><svg width="74" viewBox="0 0 77.63099670410156 65.7901840209961" xmlns="http://www.w3.org/2000/svg" version="1.1" xmlns:xlink="http://www.w3.org/1999/xlink" xmlns:svgjs="http://svgjs.com/svgjs" preserveAspectRatio="none" height="62.703125" x="0" y="0"><g><svg data-color="1" xmlns="http://www.w3.org/2000/svg" xmlns:xlink="http://www.w3.org/1999/xlink" version="1.1" x="0px" y="0px" viewBox="11.184001922607422 17.105642318725586 77.63099670410156 65.7901840209961" enable-background="new 0 0 100 100" xml:space="preserve" width="77.63099670410156" height="65.7901840209961" fill="#FFFFFF"><g><g><path d="M84.131,32.704h-10.24l3.388-9.31c0.883-2.428-0.374-5.123-2.801-6.005c-2.426-0.885-5.121,0.373-6.005,2.8L63.92,32.704    H48.671l3.389-9.309c0.884-2.427-0.373-5.122-2.801-6.006c-2.427-0.881-5.12,0.374-6.004,2.8l-4.557,12.515H24.095    c-2.584,0-4.686,2.102-4.686,4.686c0,2.583,2.102,4.685,4.686,4.685h11.194l-5.77,15.85h-13.65c-2.583,0-4.685,2.102-4.685,4.686    c0,2.583,2.102,4.685,4.685,4.685H26.11l-3.388,9.309c-0.428,1.176-0.373,2.449,0.156,3.583c0.528,1.135,1.467,1.995,2.644,2.423    c0.527,0.191,1.066,0.282,1.597,0.282c1.914,0,3.716-1.183,4.408-3.084l4.555-12.513h5.72c0.544,0,0.984-0.441,0.984-0.985    c0-0.544-0.44-0.985-0.984-0.985h-6.41c-0.414,0-0.784,0.259-0.925,0.648l-4.79,13.161c-0.511,1.407-2.073,2.138-3.482,1.624    c-0.682-0.248-1.226-0.747-1.533-1.404c-0.307-0.658-0.339-1.395-0.091-2.078l3.869-10.631c0.111-0.301,0.065-0.638-0.118-0.901    c-0.185-0.263-0.486-0.42-0.807-0.42H15.869c-1.497,0-2.715-1.218-2.715-2.716c0-1.498,1.218-2.717,2.715-2.717h14.339    c0.413,0,0.784-0.259,0.925-0.648l6.487-17.819c0.111-0.302,0.065-0.638-0.118-0.902c-0.185-0.263-0.486-0.42-0.807-0.42h-12.6    c-1.498,0-2.717-1.218-2.717-2.716c0-1.498,1.218-2.717,2.717-2.717h15.293c0.414,0,0.784-0.259,0.925-0.648l4.792-13.162    c0.511-1.406,2.068-2.135,3.481-1.624c1.408,0.512,2.135,2.074,1.624,3.482l-3.871,10.631c-0.111,0.302-0.065,0.638,0.118,0.902    c0.185,0.263,0.485,0.42,0.807,0.42h17.345c0.414,0,0.784-0.259,0.925-0.648l4.79-13.162c0.512-1.407,2.073-2.137,3.481-1.623    c1.407,0.511,2.136,2.073,1.624,3.482L71.56,33.352c-0.11,0.301-0.065,0.638,0.118,0.901c0.185,0.263,0.486,0.42,0.807,0.42    h11.646c1.497,0,2.715,1.219,2.715,2.717c0,1.497-1.218,2.716-2.715,2.716H69.792c-0.414,0-0.784,0.259-0.925,0.648L62.38,58.573    c-0.111,0.302-0.065,0.638,0.118,0.902c0.185,0.263,0.486,0.42,0.807,0.42h12.601c1.497,0,2.715,1.219,2.715,2.717    c0,1.497-1.218,2.716-2.715,2.716H60.612c-0.414,0-0.784,0.259-0.925,0.648l-4.789,13.161c-0.511,1.407-2.073,2.135-3.484,1.625    c-1.407-0.512-2.135-2.075-1.624-3.482l3.869-10.631c0.111-0.301,0.065-0.638-0.118-0.901c-0.185-0.263-0.486-0.42-0.807-0.42    h-5.407c-0.544,0-0.985,0.441-0.985,0.985c0,0.544,0.44,0.985,0.985,0.985h4.001l-3.388,9.31    c-0.883,2.428,0.374,5.122,2.801,6.005c2.43,0.884,5.124-0.374,6.007-2.802l4.554-12.513h14.605c2.583,0,4.685-2.102,4.685-4.685    c0-2.584-2.102-4.686-4.685-4.686H64.711l5.77-15.85h13.65c2.583,0,4.684-2.102,4.684-4.685    C88.816,34.806,86.714,32.704,84.131,32.704z"></path><path d="M50.001,42.075c0.544,0,0.985-0.441,0.985-0.985c0-0.544-0.44-0.985-0.985-0.985h-5.43c-0.414,0-0.784,0.259-0.925,0.648    l-6.484,17.819c-0.11,0.302-0.065,0.638,0.118,0.901c0.185,0.263,0.486,0.42,0.807,0.42h17.342c0.413,0,0.783-0.259,0.925-0.648    l6.486-17.819c0.111-0.302,0.065-0.638-0.118-0.902c-0.185-0.263-0.486-0.42-0.807-0.42h-6.431c-0.544,0-0.985,0.441-0.985,0.985    c0,0.544,0.44,0.985,0.985,0.985h5.025l-5.77,15.85H39.493l5.767-15.85H50.001z"></path></g></g></svg></g><defs id="SvgjsDefs1020"></defs></svg></g><g id="SvgjsG1023" transform="rotate(0 143.5 31.0390625)"><svg xmlns="http://www.w3.org/2000/svg" xmlns:xlink="http://www.w3.org/1999/xlink" width="118.71875" viewBox="3.200000047683716 1.9600000381469727 118.72000122070312 32.68000030517578" overflow="visible" style="overflow: visible;" transform="" version="1.1" xmlns:svgjs="http://svgjs.com/svgjs" preserveAspectRatio="none" height="32.671875" x="84.140625" y="14.703125" fill="#000000" stroke="none"><path stroke="none" fill="#FFFFFF" d="M20.12 32.64L20.12 4.28L20.12 4.28Q20.12 2.36 22.48 2.36L22.48 2.36L22.48 2.36Q24.88 2.36 24.88 4.28L24.88 4.28L24.88 32.64L24.88 32.64Q24.88 34.56 22.48 34.56L22.48 34.56L22.48 34.56Q20.12 34.56 20.12 32.64L20.12 32.64ZM7.96 4.28L7.96 32.64L7.96 32.64Q7.96 34.56 5.56 34.56L5.56 34.56L5.56 34.56Q3.20 34.56 3.20 32.64L3.20 32.64L3.20 4.28L3.20 4.28Q3.20 2.36 5.56 2.36L5.56 2.36L5.56 2.36Q7.96 2.36 7.96 4.28L7.96 4.28ZM17.32 17.80L17.32 17.80L17.32 17.80Q17.32 19.20 16.36 20.16L16.36 20.16L16.36 20.16Q15.40 21.12 14 21.12L14 21.12L14 21.12Q12.64 21.12 11.68 20.16L11.68 20.16L11.68 20.16Q10.72 19.20 10.72 17.80L10.72 17.80L10.72 17.80Q10.72 16.40 11.68 15.44L11.68 15.44L11.68 15.44Q12.64 14.48 14 14.48L14 14.48L14 14.48Q15.40 14.48 16.36 15.44L16.36 15.44L16.36 15.44Q17.32 16.40 17.32 17.80ZM35.76 16.60L35.76 27.92L35.76 27.92Q35.76 28.88 36.38 29.72L36.38 29.72L36.38 29.72Q37 30.56 38.48 30.56L38.48 30.56L43.48 30.56L43.48 30.56Q44.96 30.56 45.58 29.82L45.58 29.82L45.58 29.82Q46.20 29.08 46.20 28.12L46.20 28.12L46.20 27.68L46.20 27.68Q46.20 25.80 48.40 25.80L48.40 25.80L48.40 25.80Q50.60 25.80 50.60 27.68L50.60 27.68L50.60 28.16L50.60 28.16Q50.60 29.84 50.06 30.92L50.06 30.92L50.06 30.92Q49.52 32 48.44 32.80L48.44 32.80L48.44 32.80Q46.32 34.32 44.20 34.32L44.20 34.32L37.48 34.32L37.48 34.32Q35.36 34.32 33.36 32.80L33.36 32.80L33.36 32.80Q32.40 32 31.88 30.78L31.88 30.78L31.88 30.78Q31.36 29.56 31.36 27.96L31.36 27.96L31.36 16.56L31.36 16.56Q31.36 13.32 33.36 11.76L33.36 11.76L33.36 11.76Q34.36 11.04 35.42 10.62L35.42 10.62L35.42 10.62Q36.48 10.20 37.48 10.20L37.48 10.20L44.20 10.20L44.20 10.20Q45.16 10.20 46.32 10.58L46.32 10.58L46.32 10.58Q47.48 10.96 48.48 11.60L48.48 11.60L48.48 11.60Q49.44 12.28 50.02 13.48L50.02 13.48L50.02 13.48Q50.60 14.68 50.60 16.32L50.60 16.32L50.60 21.72L50.60 21.72Q50.60 22.64 50.06 23.36L50.06 23.36L50.06 23.36Q49.52 24.08 48.08 24.08L48.08 24.08L39.44 24.08L39.44 24.08Q38 24.08 37.92 22.20L37.92 22.20L37.92 22.20Q37.92 20.32 39.44 20.32L39.44 20.32L46.24 20.32L46.20 16.60L46.20 16.60Q46.20 15.60 45.58 14.78L45.58 14.78L45.58 14.78Q44.96 13.96 43.48 13.96L43.48 13.96L38.48 13.96L38.48 13.96Q37 13.96 36.38 14.78L36.38 14.78L36.38 14.78Q35.76 15.60 35.76 16.60L35.76 16.60ZM72.88 13.16L66.64 22.08L73.36 31.56L73.36 31.56Q73.64 31.96 73.64 32.44L73.64 32.44L73.64 32.44Q73.64 33.28 72.44 34.12L72.44 34.12L72.44 34.12Q71.68 34.64 71 34.64L71 34.64L71 34.64Q70.60 34.64 70.18 34.36L70.18 34.36L70.18 34.36Q69.76 34.08 69.40 33.64L69.40 33.64L63.92 25.92L63.92 25.92Q63.32 26.76 62.62 27.76L62.62 27.76L62.62 27.76Q61.92 28.76 61.20 29.78L61.20 29.78L61.20 29.78Q60.48 30.80 59.78 31.80L59.78 31.80L59.78 31.80Q59.08 32.80 58.48 33.64L58.48 33.64L58.48 33.64Q57.72 34.64 56.84 34.64L56.84 34.64L56.84 34.64Q56.08 34.64 55.40 34.12L55.40 34.12L55.40 34.12Q54.84 33.72 54.54 33.34L54.54 33.34L54.54 33.34Q54.24 32.96 54.24 32.48L54.24 32.48L54.24 32.48Q54.24 32 54.56 31.56L54.56 31.56L61.20 22.08L61.20 22.08Q59.72 19.96 58.08 17.64L58.08 17.64L58.08 17.64Q56.44 15.32 54.96 13.16L54.96 13.16L54.96 13.16Q54.80 12.88 54.66 12.54L54.66 12.54L54.66 12.54Q54.52 12.20 54.52 12L54.52 12L54.52 12Q54.52 11.16 55.64 10.44L55.64 10.44L55.60 10.44L55.60 10.44Q56 10.24 56.34 10.10L56.34 10.10L56.34 10.10Q56.68 9.96 57 9.96L57 9.96L57 9.96Q58.08 9.96 58.88 11.12L58.88 11.12L63.92 18.28L68.96 11.12L68.96 11.12Q69.80 9.96 70.84 9.96L70.84 9.96L70.84 9.96Q71.20 9.96 71.52 10.10L71.52 10.10L71.52 10.10Q71.84 10.24 72.24 10.44L72.24 10.44L72.20 10.44L72.20 10.44Q73.36 11.16 73.36 12L73.36 12L73.36 12Q73.36 12.48 72.88 13.16L72.88 13.16ZM82.32 12L82.32 32.64L82.32 32.64Q82.32 34.56 80.12 34.56L80.12 34.56L80.12 34.56Q77.88 34.56 77.88 32.64L77.88 32.64L77.88 12L77.88 12Q77.88 10.08 80.12 10.08L80.12 10.08L80.12 10.08Q82.32 10.08 82.32 12L82.32 12ZM83.16 5.04L83.16 5.04L83.16 5.04Q83.16 6.32 82.28 7.20L82.28 7.20L82.28 7.20Q81.40 8.08 80.12 8.08L80.12 8.08L80.12 8.08Q78.84 8.08 77.94 7.20L77.94 7.20L77.94 7.20Q77.04 6.32 77.04 5.04L77.04 5.04L77.04 5.04Q77.04 3.72 77.94 2.84L77.94 2.84L77.94 2.84Q78.84 1.96 80.12 1.96L80.12 1.96L80.12 1.96Q81.40 1.96 82.28 2.84L82.28 2.84L82.28 2.84Q83.16 3.72 83.16 5.04ZM103.44 22.56L97.92 22.56L97.92 22.56Q97.24 22.56 96.86 22.02L96.86 22.02L96.86 22.02Q96.48 21.48 96.48 20.56L96.48 20.56L96.48 20.56Q96.48 18.52 98.16 18.52L98.16 18.52L102.40 18.52L102.40 18.52Q103.88 18.52 104.50 17.68L104.50 17.68L104.50 17.68Q105.12 16.84 105.12 15.84L105.12 15.84L105.12 9.28L105.12 9.28Q105.12 8.28 104.50 7.44L104.50 7.44L104.50 7.44Q103.88 6.60 102.40 6.60L102.40 6.60L94 6.60L94 32.72L94 32.72Q94 34.64 91.60 34.64L91.60 34.64L91.60 34.64Q89.28 34.64 89.28 32.72L89.28 32.72L89.28 4.96L89.28 4.96Q89.28 3.52 90 3.04L90 3.04L90 3.04Q90.72 2.56 91.76 2.56L91.76 2.56L103.44 2.56L103.44 2.56Q104.44 2.56 105.56 3L105.56 3L105.56 3Q106.68 3.44 107.72 4.12L107.72 4.12L107.68 4.12L107.68 4.12Q108.72 4.88 109.28 6.10L109.28 6.10L109.28 6.10Q109.84 7.32 109.84 8.92L109.84 8.92L109.84 16.16L109.84 16.16Q109.84 19.40 107.68 21L107.68 21L107.68 21Q106.64 21.76 105.56 22.16L105.56 22.16L105.56 22.16Q104.48 22.56 103.44 22.56L103.44 22.56ZM121.08 12L121.08 32.64L121.08 32.64Q121.08 34.56 118.88 34.56L118.88 34.56L118.88 34.56Q116.64 34.56 116.64 32.64L116.64 32.64L116.64 12L116.64 12Q116.64 10.08 118.88 10.08L118.88 10.08L118.88 10.08Q121.08 10.08 121.08 12L121.08 12ZM121.92 5.04L121.92 5.04L121.92 5.04Q121.92 6.32 121.04 7.20L121.04 7.20L121.04 7.20Q120.16 8.08 118.88 8.08L118.88 8.08L118.88 8.08Q117.60 8.08 116.70 7.20L116.70 7.20L116.70 7.20Q115.80 6.32 115.80 5.04L115.80 5.04L115.80 5.04Q115.80 3.72 116.70 2.84L116.70 2.84L116.70 2.84Q117.60 1.96 118.88 1.96L118.88 1.96L118.88 1.96Q120.16 1.96 121.04 2.84L121.04 2.84L121.04 2.84Q121.92 3.72 121.92 5.04Z" transform="rotate(0 62.56000065803528 18.300000190734863)"></path><defs id="SvgjsDefs1022"></defs></svg></g></svg>